<svg xmlns="http://www.w3.org/2000/svg" viewBox="0 0 512 512" role="img" aria-labelledby="title desc">
  <title id="title">App Cổ Học icon</title>
  <desc id="desc">Ancient bronze seal style icon for App Cổ Học.</desc>
  <defs>
    <radialGradient id="bg" cx="50%" cy="38%" r="78%">
      <stop offset="0%" stop-color="#2a1b10"/>
      <stop offset="55%" stop-color="#120d0a"/>
      <stop offset="100%" stop-color="#050403"/>
    </radialGradient>
    <linearGradient id="gold" x1="18%" y1="8%" x2="82%" y2="94%">
      <stop offset="0%" stop-color="#ffe39b"/>
      <stop offset="24%" stop-color="#c9953e"/>
      <stop offset="54%" stop-color="#80531e"/>
      <stop offset="78%" stop-color="#e5bd69"/>
      <stop offset="100%" stop-color="#7a4a18"/>
    </linearGradient>
    <filter id="shadow" x="-20%" y="-20%" width="140%" height="140%">
      <feDropShadow dx="0" dy="9" stdDeviation="8" flood-color="#000" flood-opacity="0.55"/>
    </filter>
    <filter id="innerGlow" x="-20%" y="-20%" width="140%" height="140%">
      <feDropShadow dx="0" dy="0" stdDeviation="4" flood-color="#f6c96d" flood-opacity="0.28"/>
    </filter>
  </defs>

  <rect width="512" height="512" rx="108" fill="url(#bg)"/>
  <path d="M64 94c86 24 159 22 229-3 47-17 91-19 155 5M76 418c82-22 153-18 216 5 55 20 97 16 152-6" fill="none" stroke="#8a6228" stroke-opacity="0.12" stroke-width="8"/>
  <path d="M86 322c28-18 53-20 78-5M348 180c31-21 60-22 88-3" fill="none" stroke="#f0c36d" stroke-opacity="0.09" stroke-width="7" stroke-linecap="round"/>

  <g filter="url(#shadow)">
    <rect x="98" y="98" width="316" height="316" rx="42" fill="none" stroke="url(#gold)" stroke-width="18"/>
    <path d="M138 98v74M98 138h74M374 98v74M340 138h74M138 414v-74M98 374h74M374 414v-74M340 374h74" fill="none" stroke="url(#gold)" stroke-width="15" stroke-linecap="round"/>
    <rect x="125" y="125" width="262" height="262" rx="30" fill="none" stroke="#3b2511" stroke-width="8" opacity="0.8"/>
  </g>

  <g filter="url(#innerGlow)">
    <path d="M190 155c-26 0-44 19-44 48v118c0 29 18 48 44 48h54v-39h-42c-11 0-17-7-17-19V214c0-12 6-19 17-19h42v-40h-54z" fill="url(#gold)"/>
    <path d="M284 153c48 0 82 31 82 75 0 34-20 60-52 71l53 69h-52l-47-63h-9v63h-41V153h66zm-25 39v76h20c28 0 45-14 45-39 0-23-17-37-45-37h-20z" fill="url(#gold)"/>
    <path d="M301 117c20 0 36 14 36 33 0 23-17 34-38 43l-12-21c14-7 19-11 19-19 0-6-5-10-12-10-9 0-16 5-22 14l-21-16c10-15 27-24 50-24z" fill="url(#gold)"/>
  </g>

  <circle cx="256" cy="256" r="176" fill="none" stroke="#f4cd75" stroke-opacity="0.18" stroke-width="2"/>
  <circle cx="256" cy="256" r="203" fill="none" stroke="#ffffff" stroke-opacity="0.08" stroke-width="2"/>
</svg>
