<svg xmlns="http://www.w3.org/2000/svg" viewBox="0 0 512 512">
  <defs>
    <radialGradient id="bg" cx="50%" cy="38%" r="78%"><stop offset="0%" stop-color="#2a1b10"/><stop offset="55%" stop-color="#120d0a"/><stop offset="100%" stop-color="#050403"/></radialGradient>
    <linearGradient id="gold" x1="18%" y1="8%" x2="82%" y2="94%"><stop offset="0%" stop-color="#ffe39b"/><stop offset="28%" stop-color="#c9953e"/><stop offset="60%" stop-color="#80531e"/><stop offset="100%" stop-color="#e5bd69"/></linearGradient>
  </defs>
  <rect width="512" height="512" rx="108" fill="url(#bg)"/>
  <rect x="106" y="106" width="300" height="300" rx="40" fill="none" stroke="url(#gold)" stroke-width="24"/>
  <path d="M146 106v72M106 146h72M366 106v72M334 146h72M146 406v-72M106 366h72M366 406v-72M334 366h72" fill="none" stroke="url(#gold)" stroke-width="18" stroke-linecap="round"/>
  <path d="M197 158c-27 0-45 20-45 49v108c0 29 18 49 45 49h55v-42h-43c-11 0-18-7-18-20v-82c0-13 7-20 18-20h43v-42h-55z" fill="url(#gold)"/>
  <path d="M291 156c47 0 79 30 79 72 0 33-20 58-50 69l51 67h-52l-45-61h-9v61h-41V156h67zm-26 41v70h21c27 0 43-14 43-37 0-21-16-33-43-33h-21z" fill="url(#gold)"/>
  <path d="M306 116c19 0 34 13 34 31 0 22-16 32-36 40l-12-21c13-6 18-10 18-17 0-6-5-9-12-9-8 0-15 5-20 13l-21-15c10-14 26-22 49-22z" fill="url(#gold)"/>
</svg>
