<svg xmlns="http://www.w3.org/2000/svg" viewBox="0 0 512 512" role="img" aria-labelledby="title desc">
  <title id="title">App Cổ Học maskable icon</title>
  <desc id="desc">Safe-area ancient bronze seal icon for App Cổ Học.</desc>
  <defs>
    <radialGradient id="bg" cx="50%" cy="38%" r="78%"><stop offset="0%" stop-color="#2a1b10"/><stop offset="55%" stop-color="#120d0a"/><stop offset="100%" stop-color="#050403"/></radialGradient>
    <linearGradient id="gold" x1="18%" y1="8%" x2="82%" y2="94%"><stop offset="0%" stop-color="#ffe39b"/><stop offset="24%" stop-color="#c9953e"/><stop offset="54%" stop-color="#80531e"/><stop offset="78%" stop-color="#e5bd69"/><stop offset="100%" stop-color="#7a4a18"/></linearGradient>
    <filter id="shadow" x="-20%" y="-20%" width="140%" height="140%"><feDropShadow dx="0" dy="8" stdDeviation="7" flood-color="#000" flood-opacity="0.55"/></filter>
  </defs>
  <rect width="512" height="512" fill="url(#bg)"/>
  <circle cx="256" cy="256" r="188" fill="none" stroke="#f4cd75" stroke-opacity="0.16" stroke-width="3"/>
  <g filter="url(#shadow)">
    <rect x="126" y="126" width="260" height="260" rx="34" fill="none" stroke="url(#gold)" stroke-width="17"/>
    <path d="M158 126v58M126 158h58M354 126v58M328 158h58M158 386v-58M126 354h58M354 386v-58M328 354h58" fill="none" stroke="url(#gold)" stroke-width="14" stroke-linecap="round"/>
    <path d="M202 176c-22 0-37 16-37 40v96c0 24 15 40 37 40h45v-33h-35c-9 0-14-6-14-16v-78c0-10 5-16 14-16h35v-33h-45z" fill="url(#gold)"/>
    <path d="M282 175c41 0 69 26 69 63 0 28-17 51-44 60l45 58h-45l-39-53h-8v53h-35V175h57zm-22 33v64h17c23 0 38-12 38-33 0-19-15-31-38-31h-17z" fill="url(#gold)"/>
    <path d="M298 143c17 0 31 12 31 28 0 20-15 29-32 36l-10-18c12-6 16-9 16-16 0-5-4-8-10-8-8 0-13 4-18 12l-18-14c9-12 23-20 41-20z" fill="url(#gold)"/>
  </g>
</svg>
